<?xml version="1.0" encoding="UTF-8" standalone="no"?>
<!-- Created with Inkscape (http://www.inkscape.org/) -->

<svg
   width="500mm"
   height="500mm"
   viewBox="0 0 500 500"
   version="1.1"
   id="svg5"
   inkscape:export-filename="C:\Users\iidaf\enthusiastic.png"
   inkscape:export-xdpi="25.4"
   inkscape:export-ydpi="25.4"
   inkscape:version="1.1.1 (3bf5ae0d25, 2021-09-20)"
   sodipodi:docname="enthusiastic.svg"
   xmlns:inkscape="http://www.inkscape.org/namespaces/inkscape"
   xmlns:sodipodi="http://sodipodi.sourceforge.net/DTD/sodipodi-0.dtd"
   xmlns="http://www.w3.org/2000/svg"
   xmlns:svg="http://www.w3.org/2000/svg">
  <sodipodi:namedview
     id="namedview7"
     pagecolor="#ffffff"
     bordercolor="#666666"
     borderopacity="1.0"
     inkscape:pageshadow="2"
     inkscape:pageopacity="0.0"
     inkscape:pagecheckerboard="0"
     inkscape:document-units="mm"
     showgrid="false"
     inkscape:zoom="0.22627417"
     inkscape:cx="707.10678"
     inkscape:cy="1482.7145"
     inkscape:window-width="1920"
     inkscape:window-height="1009"
     inkscape:window-x="-8"
     inkscape:window-y="-8"
     inkscape:window-maximized="1"
     inkscape:current-layer="layer1" />
  <defs
     id="defs2">
	
</defs>
  <g
     inkscape:label="Layer 1"
     inkscape:groupmode="layer"
     id="layer1">
    <rect
       style="fill:#ffffff;fill-opacity:1;stroke-width:0.264583"
       id="rect24026"
       width="499.99994"
       height="499.99994"
       x="2.55e-05"
       y="2.4999999e-05" />
    <path
       id="rect1030-6"
       style="fill:#3882eb;fill-opacity:1;stroke-width:0.264583"
       d="M 2.55e-5,2.5e-5 V 499.99997 H 499.99997 L 332.42519,332.42519 283.94443,317.62764 c -1.30946,-1.94376 -2.65055,-3.86806 -4.03283,-5.76089 -5.09834,-6.98147 -9.54991,-14.12692 -13.44362,-21.11602 l 34.95083,10.66808 -42.02534,-42.02534 -8.54625,-2.60863 c -1.26377,-3.38889 -2.31896,-6.44309 -3.2091,-9.14672 l -6.30556,-6.30556 c -1.37852,2.71396 -3.09343,6.10487 -5.45858,10.8815 L 172.1714,232.77029 c 9.2274,-12.83882 16.89841,-25.30244 23.32107,-37.27783 z M 195.49247,195.49246 l 45.84009,45.8401 c 1.71432,-3.37509 2.80758,-5.49476 2.80758,-5.49476 0,0 1.10058,4.51869 3.49798,11.80032 l 11.75535,11.75535 101.19124,30.887 c -1.66749,-8.84685 -4.03368,-18.4294 -7.31377,-28.76258 -12.3597,-38.38007 -27.55412,-56.28823 -36.34558,-63.97903 -2.62977,-2.30082 -6.7197,-0.26215 -6.504,3.22511 2.56183,41.41205 -13.01726,51.92126 -21.88496,28.23807 -3.54152,-9.45945 -5.6069,-25.82073 -5.6069,-45.74552 0,-33.17124 -9.62369,-67.31762 -30.84101,-95.065505 -5.51751,-7.21585 -11.9741,-13.95897 -19.38124,-19.70889 -0.67041,-0.52051 -1.41621,-0.78004 -2.15388,-0.82373 -2.21304,-0.13107 -4.35287,1.68045 -4.16873,4.21992 1.33481,18.42379 0.52633,65.032675 -30.89217,123.614145 z m 105.92634,105.92635 31.00638,31.00638 30.29686,9.24749 c 0.33692,-2.83866 0.61633,-5.73855 0.80202,-8.73435 0.28504,-3.8119 0.39957,-7.98208 0.31832,-12.4659 z m -144.97461,-44.25104 67.09978,20.4804 c -2.70836,5.68777 -5.68043,12.00866 -8.86096,18.83813 l -67.32716,-20.55069 c 2.51302,-6.07254 5.52006,-12.33348 9.08834,-18.76784 z m -17.49402,45.39981 63.98007,19.52904 c -2.20231,4.8542 -4.34856,9.55724 -6.69933,14.81253 -0.62384,1.39462 -1.2029,2.77539 -1.757,4.14807 l -58.34165,-17.8077 c 0.36774,-6.46173 1.24571,-13.36905 2.81791,-20.68194 z m 162.70273,49.66208 54.94806,16.77262 c -2.38091,6.91709 -5.26257,13.21466 -8.53126,18.93786 L 307.1611,375.45357 c -0.91045,-7.7768 -2.81777,-15.55814 -5.50819,-23.22391 z m -163.60448,0.80254 49.41507,15.08331 c -2.794,25.01567 5.41483,44.8586 13.95573,58.15149 2.18103,3.39429 -1.57688,7.49499 -5.13922,5.60121 -18.35874,-9.76159 -37.15707,-26.47516 -50.63412,-54.93515 -2.13664,-4.50304 -5.44364,-12.70087 -7.59746,-23.90086 z m 167.56703,51.14726 24.07915,7.34944 c -8.89587,8.56759 -18.60404,14.9744 -27.93008,19.74503 -3.5391,1.81097 -7.21207,-2.18469 -5.1294,-5.57123 4.271,-6.94406 7.19777,-14.15835 8.98033,-21.52324 z" />
    <g
       id="g1552"
       style="fill:#ffffff;stroke-width:0.618513"
       transform="matrix(0.4277731,0,0,0.4277731,119.10165,83.216547)">
</g>
    <g
       id="g1554"
       style="fill:#ffffff;stroke-width:0.618513"
       transform="matrix(0.4277731,0,0,0.4277731,119.10165,83.216547)">
</g>
    <g
       id="g1556"
       style="fill:#ffffff;stroke-width:0.618513"
       transform="matrix(0.4277731,0,0,0.4277731,119.10165,83.216547)">
</g>
    <g
       id="g1558"
       style="fill:#ffffff;stroke-width:0.618513"
       transform="matrix(0.4277731,0,0,0.4277731,119.10165,83.216547)">
</g>
    <g
       id="g1560"
       style="fill:#ffffff;stroke-width:0.618513"
       transform="matrix(0.4277731,0,0,0.4277731,119.10165,83.216547)">
</g>
    <g
       id="g1562"
       style="fill:#ffffff;stroke-width:0.618513"
       transform="matrix(0.4277731,0,0,0.4277731,119.10165,83.216547)">
</g>
    <g
       id="g1564"
       style="fill:#ffffff;stroke-width:0.618513"
       transform="matrix(0.4277731,0,0,0.4277731,119.10165,83.216547)">
</g>
    <g
       id="g1566"
       style="fill:#ffffff;stroke-width:0.618513"
       transform="matrix(0.4277731,0,0,0.4277731,119.10165,83.216547)">
</g>
    <g
       id="g1568"
       style="fill:#ffffff;stroke-width:0.618513"
       transform="matrix(0.4277731,0,0,0.4277731,119.10165,83.216547)">
</g>
    <g
       id="g1570"
       style="fill:#ffffff;stroke-width:0.618513"
       transform="matrix(0.4277731,0,0,0.4277731,119.10165,83.216547)">
</g>
    <g
       id="g1572"
       style="fill:#ffffff;stroke-width:0.618513"
       transform="matrix(0.4277731,0,0,0.4277731,119.10165,83.216547)">
</g>
    <g
       id="g1574"
       style="fill:#ffffff;stroke-width:0.618513"
       transform="matrix(0.4277731,0,0,0.4277731,119.10165,83.216547)">
</g>
    <g
       id="g1576"
       style="fill:#ffffff;stroke-width:0.618513"
       transform="matrix(0.4277731,0,0,0.4277731,119.10165,83.216547)">
</g>
    <g
       id="g1578"
       style="fill:#ffffff;stroke-width:0.618513"
       transform="matrix(0.4277731,0,0,0.4277731,119.10165,83.216547)">
</g>
    <g
       id="g1580"
       style="fill:#ffffff;stroke-width:0.618513"
       transform="matrix(0.4277731,0,0,0.4277731,119.10165,83.216547)">
</g>
  </g>
</svg>
